<svg width="24" height="24" viewBox="0 0 24 24" fill="none" xmlns="http://www.w3.org/2000/svg">
<path fill-rule="evenodd" clip-rule="evenodd" d="M16.5 3H7.5C5.01472 3 3 5.01472 3 7.5V16.5C3 18.9853 5.01472 21 7.5 21H16.5C18.9853 21 21 18.9853 21 16.5V7.5C21 5.01472 18.9853 3 16.5 3ZM12.4205 9.38945C11.8795 9.30924 11.327 9.40164 10.8416 9.65351C10.3562 9.90539 9.96254 10.3039 9.71667 10.7924C9.4708 11.2809 9.38522 11.8345 9.4721 12.3744C9.55898 12.9143 9.8139 13.4131 10.2006 13.7998C10.5873 14.1865 11.0861 14.4414 11.626 14.5283C12.1659 14.6152 12.7195 14.5296 13.208 14.2837C13.6965 14.0379 14.095 13.6442 14.3469 13.1588C14.5988 12.6734 14.6912 12.1209 14.611 11.58C14.5291 11.0282 14.272 10.5173 13.8776 10.1229C13.4831 9.72841 12.9723 9.47128 12.4205 9.38945ZM9.92046 7.87827C10.7793 7.43264 11.7567 7.26916 12.7138 7.41109C13.6901 7.55586 14.5939 8.01077 15.2918 8.70864C15.9896 9.40651 16.4446 10.3103 16.5893 11.2866C16.7312 12.2437 16.5678 13.2211 16.1221 14.08C15.6765 14.9388 14.9714 15.6352 14.1072 16.0702C13.2429 16.5052 12.2635 16.6566 11.3083 16.5029C10.353 16.3492 9.47055 15.8982 8.78639 15.214C8.10223 14.5299 7.65122 13.6474 7.4975 12.6921C7.34379 11.7369 7.4952 10.7575 7.9302 9.89322C8.3652 9.02897 9.06164 8.32389 9.92046 7.87827ZM16.9501 6.04993C16.3978 6.04993 15.9501 6.49765 15.9501 7.04993C15.9501 7.60222 16.3978 8.04993 16.9501 8.04993H16.9591C17.5114 8.04993 17.9591 7.60222 17.9591 7.04993C17.9591 6.49765 17.5114 6.04993 16.9591 6.04993H16.9501Z" fill="white"/>
</svg>
