<svg width="399" height="386" viewBox="0 0 399 386" fill="none" xmlns="http://www.w3.org/2000/svg">
<g clip-path="url(#clip0_2729_3273)">
<path d="M364.023 385.502V346.814C364.023 346.814 379.1 374.242 364.023 385.502Z" fill="#F1F1F1"/>
<path d="M364.96 385.495L336.461 359.332C336.461 359.332 366.862 366.774 364.96 385.495Z" fill="#F1F1F1"/>
<path d="M264.442 170.816L113.209 259.206C112.68 259.515 112.05 259.601 111.457 259.446C110.864 259.29 110.358 258.906 110.048 258.377L12.7953 91.9815C12.4867 91.4521 12.4007 90.8221 12.5562 90.2294C12.7116 89.6368 13.0957 89.13 13.6243 88.8202L164.857 0.430048C165.386 0.121494 166.016 0.0354966 166.609 0.190921C167.202 0.346345 167.709 0.7305 168.018 1.25911L265.271 167.655C265.579 168.184 265.665 168.814 265.51 169.407C265.355 170 264.97 170.507 264.442 170.816Z" fill="white"/>
<path d="M264.442 170.816L113.209 259.206C112.68 259.515 112.05 259.601 111.457 259.446C110.864 259.29 110.358 258.906 110.048 258.377L12.7953 91.9815C12.4867 91.4521 12.4007 90.8221 12.5562 90.2294C12.7116 89.6368 13.0957 89.13 13.6243 88.8202L164.857 0.430048C165.386 0.121494 166.016 0.0354966 166.609 0.190921C167.202 0.346345 167.709 0.7305 168.018 1.25911L265.271 167.655C265.579 168.184 265.665 168.814 265.51 169.407C265.355 170 264.97 170.507 264.442 170.816ZM14.0908 89.6182C13.7736 89.8041 13.5431 90.1082 13.4499 90.4638C13.3566 90.8194 13.4082 91.1974 13.5934 91.515L110.846 257.911C111.032 258.228 111.336 258.459 111.691 258.552C112.047 258.645 112.425 258.594 112.743 258.408L263.975 170.018C264.293 169.832 264.523 169.528 264.616 169.173C264.71 168.817 264.658 168.439 264.473 168.121L167.22 1.72552C167.034 1.40834 166.73 1.17783 166.375 1.08458C166.019 0.991322 165.641 1.04293 165.324 1.22808L14.0908 89.6182Z" fill="#3F3D56"/>
<path d="M111.298 106.189L73.7893 128.112C73.26 128.42 72.6299 128.506 72.0373 128.351C71.4446 128.195 70.9378 127.811 70.6281 127.283L48.7054 89.7737C48.3969 89.2444 48.3109 88.6143 48.4663 88.0216C48.6217 87.429 49.0059 86.9222 49.5345 86.6124L87.0434 64.6898C87.5727 64.3813 88.2028 64.2953 88.7955 64.4507C89.3881 64.6061 89.8949 64.9903 90.2047 65.5189L112.127 103.028C112.436 103.557 112.522 104.187 112.366 104.78C112.211 105.372 111.827 105.879 111.298 106.189ZM50.0009 87.4105C49.6838 87.5963 49.4533 87.9004 49.36 88.256C49.2667 88.6116 49.3184 88.9897 49.5035 89.3072L71.4262 126.816C71.612 127.133 71.9161 127.364 72.2717 127.457C72.6273 127.55 73.0053 127.499 73.3229 127.314L110.832 105.391C111.149 105.205 111.38 104.901 111.473 104.545C111.566 104.19 111.514 103.812 111.329 103.494L89.4066 65.9853C89.2208 65.6681 88.9167 65.4376 88.5611 65.3444C88.2055 65.2511 87.8274 65.3027 87.5099 65.4879L50.0009 87.4105Z" fill="#F2F2F2"/>
<path d="M103.208 117.074L65.6995 138.997C65.2231 139.274 64.6561 139.352 64.1227 139.212C63.5893 139.072 63.1332 138.726 62.8544 138.25L40.9318 100.742C40.6541 100.265 40.5767 99.698 40.7166 99.1647C40.8564 98.6313 41.2022 98.1752 41.6779 97.8964L79.1869 75.9738C79.6632 75.6961 80.2303 75.6187 80.7637 75.7585C81.2971 75.8984 81.7532 76.2442 82.032 76.7199L103.955 114.229C104.232 114.705 104.31 115.272 104.17 115.806C104.03 116.339 103.684 116.795 103.208 117.074Z" fill="#19D2A6"/>
<path d="M193.741 88.7856L76.4262 157.352C75.95 157.631 75.3827 157.708 74.8491 157.568C74.3155 157.428 73.8594 157.082 73.5811 156.606C73.3027 156.13 73.225 155.562 73.3649 155.029C73.5048 154.495 73.851 154.039 74.3272 153.761L191.642 85.1944C191.878 85.0565 192.139 84.9665 192.409 84.9294C192.68 84.8923 192.955 84.9089 193.219 84.9782C193.484 85.0475 193.732 85.1681 193.949 85.3332C194.167 85.4984 194.35 85.7047 194.488 85.9405C194.625 86.1763 194.715 86.437 194.752 86.7076C194.79 86.9782 194.773 87.2534 194.704 87.5176C194.634 87.7818 194.514 88.0298 194.349 88.2473C194.184 88.4649 193.977 88.6478 193.741 88.7856Z" fill="#CCCCCC"/>
<path d="M172.641 117.714L83.6567 169.722C83.4209 169.86 83.1602 169.95 82.8896 169.987C82.619 170.024 82.3438 170.008 82.0796 169.938C81.546 169.799 81.0899 169.452 80.8116 168.976C80.5332 168.5 80.4555 167.933 80.5954 167.399C80.7353 166.865 81.0815 166.409 81.5577 166.131L170.542 114.123C170.777 113.985 171.038 113.895 171.309 113.858C171.579 113.821 171.855 113.838 172.119 113.907C172.383 113.976 172.631 114.097 172.848 114.262C173.066 114.427 173.249 114.633 173.387 114.869C173.525 115.105 173.615 115.366 173.652 115.636C173.689 115.907 173.672 116.182 173.603 116.446C173.534 116.711 173.413 116.958 173.248 117.176C173.083 117.394 172.876 117.577 172.641 117.714V117.714Z" fill="#CCCCCC"/>
<path d="M166.761 43.5298L114.887 73.8483C114.411 74.1266 113.844 74.2044 113.31 74.0645C112.776 73.9245 112.32 73.5784 112.042 73.1022C111.764 72.6259 111.686 72.0586 111.826 71.5251C111.966 70.9915 112.312 70.5354 112.788 70.257L164.662 39.9385C165.138 39.6602 165.706 39.5824 166.239 39.7223C166.503 39.7916 166.751 39.9123 166.969 40.0774C167.187 40.2425 167.37 40.4488 167.507 40.6847C167.645 40.9205 167.735 41.1811 167.772 41.4517C167.809 41.7223 167.793 41.9976 167.723 42.2618C167.654 42.5259 167.534 42.7739 167.368 42.9915C167.203 43.209 166.997 43.392 166.761 43.5298Z" fill="#CCCCCC"/>
<path d="M161.042 63.4663L122.114 86.2184C121.878 86.3562 121.617 86.4462 121.347 86.4833C121.076 86.5204 120.801 86.5038 120.537 86.4345C120.272 86.3653 120.024 86.2446 119.807 86.0795C119.589 85.9144 119.406 85.708 119.269 85.4722C119.131 85.2364 119.041 84.9758 119.004 84.7052C118.967 84.4346 118.983 84.1593 119.052 83.8951C119.122 83.6309 119.242 83.383 119.407 83.1654C119.573 82.9478 119.779 82.7649 120.015 82.6271L158.943 59.875C159.419 59.5967 159.986 59.5189 160.52 59.6589C161.053 59.7988 161.51 60.1449 161.788 60.6212C162.066 61.0974 162.144 61.6647 162.004 62.1983C161.864 62.7318 161.518 63.188 161.042 63.4663Z" fill="#CCCCCC"/>
<path d="M208.206 113.526L90.8911 182.092C90.4148 182.371 89.8475 182.449 89.314 182.309C88.7804 182.169 88.3243 181.822 88.0459 181.346C87.7676 180.87 87.6898 180.303 87.8298 179.769C87.9697 179.236 88.3158 178.779 88.7921 178.501L206.107 109.935C206.583 109.656 207.151 109.578 207.684 109.718C208.218 109.858 208.674 110.205 208.952 110.681C209.231 111.157 209.308 111.724 209.169 112.258C209.029 112.791 208.682 113.248 208.206 113.526V113.526Z" fill="#CCCCCC"/>
<path d="M187.105 142.455L98.1215 194.462C97.8857 194.6 97.6251 194.69 97.3545 194.727C97.0839 194.764 96.8086 194.748 96.5444 194.679C96.2802 194.609 96.0323 194.489 95.8147 194.324C95.5971 194.158 95.4142 193.952 95.2764 193.716C95.1386 193.48 95.0485 193.22 95.0115 192.949C94.9744 192.679 94.9909 192.403 95.0602 192.139C95.1295 191.875 95.2502 191.627 95.4153 191.409C95.5804 191.192 95.7867 191.009 96.0225 190.871L185.006 138.863C185.242 138.725 185.503 138.635 185.774 138.598C186.044 138.561 186.319 138.578 186.584 138.647C186.848 138.716 187.096 138.837 187.313 139.002C187.531 139.167 187.714 139.374 187.852 139.609C187.989 139.845 188.079 140.106 188.117 140.377C188.154 140.647 188.137 140.922 188.068 141.187C187.998 141.451 187.878 141.699 187.713 141.916C187.548 142.134 187.341 142.317 187.105 142.455V142.455Z" fill="#CCCCCC"/>
<path d="M222.663 138.265L105.348 206.832C105.112 206.969 104.852 207.06 104.581 207.097C104.31 207.134 104.035 207.117 103.771 207.048C103.507 206.979 103.259 206.858 103.041 206.693C102.824 206.528 102.641 206.321 102.503 206.085C102.365 205.85 102.275 205.589 102.238 205.318C102.201 205.048 102.217 204.773 102.287 204.508C102.356 204.244 102.477 203.996 102.642 203.779C102.807 203.561 103.013 203.378 103.249 203.24L220.564 134.674C220.8 134.536 221.061 134.446 221.331 134.409C221.602 134.372 221.877 134.388 222.141 134.458C222.405 134.527 222.653 134.648 222.871 134.813C223.089 134.978 223.271 135.184 223.409 135.42C223.547 135.656 223.637 135.916 223.674 136.187C223.711 136.458 223.695 136.733 223.625 136.997C223.556 137.261 223.436 137.509 223.27 137.727C223.105 137.944 222.899 138.127 222.663 138.265Z" fill="#CCCCCC"/>
<path d="M229.894 150.636L112.579 219.203C112.343 219.34 112.082 219.431 111.811 219.468C111.541 219.505 111.266 219.488 111.001 219.419C110.737 219.35 110.489 219.229 110.272 219.064C110.054 218.899 109.871 218.692 109.733 218.457C109.596 218.221 109.506 217.96 109.468 217.689C109.431 217.419 109.448 217.144 109.517 216.879C109.587 216.615 109.707 216.367 109.872 216.15C110.037 215.932 110.244 215.749 110.48 215.611L227.795 147.045C228.03 146.907 228.291 146.817 228.562 146.78C228.832 146.743 229.108 146.759 229.372 146.829C229.636 146.898 229.884 147.019 230.101 147.184C230.319 147.349 230.502 147.555 230.64 147.791C230.778 148.027 230.868 148.288 230.905 148.558C230.942 148.829 230.925 149.104 230.856 149.368C230.787 149.632 230.666 149.88 230.501 150.098C230.336 150.315 230.129 150.498 229.894 150.636Z" fill="#CCCCCC"/>
<path d="M191.96 198.791C193.59 196.872 195.057 194.82 196.346 192.657C197.502 190.706 198.636 188.619 198.891 186.331C199.021 185.356 198.92 184.365 198.595 183.437C198.269 182.509 197.73 181.671 197.02 180.99C196.334 180.358 195.464 179.96 194.536 179.855C193.609 179.749 192.672 179.942 191.861 180.404C191.041 180.875 190.363 181.559 189.899 182.384C189.436 183.208 189.204 184.143 189.228 185.089C189.295 186.13 189.596 187.143 190.108 188.052C190.621 188.96 191.332 189.742 192.189 190.337C195.656 192.85 201.072 192.718 204.768 190.806C208.931 188.653 211.081 183.019 207.811 179.162C207.131 178.36 205.999 179.257 206.169 180.122C206.385 181.291 207.039 182.333 207.998 183.036C208.957 183.738 210.148 184.048 211.327 183.903C212.507 183.757 213.586 183.166 214.345 182.251C215.104 181.336 215.485 180.166 215.41 178.98L213.94 179.839C215.742 180.638 217.723 180.947 219.683 180.737C221.643 180.527 223.514 179.804 225.106 178.641C225.893 178.069 226.597 177.389 227.195 176.622C227.915 175.683 229.124 175.076 230.103 174.4L237.157 169.526C238.195 168.809 237.208 167.1 236.162 167.823L229.773 172.238C228.708 172.973 227.637 173.7 226.579 174.445C225.822 174.977 225.357 175.837 224.669 176.469C223.365 177.642 221.756 178.419 220.028 178.711C218.3 179.004 216.524 178.799 214.908 178.121C214.757 178.04 214.588 177.999 214.417 178.002C214.246 178.005 214.079 178.052 213.932 178.138C213.784 178.224 213.661 178.347 213.574 178.494C213.488 178.642 213.441 178.809 213.437 178.98C213.515 179.688 213.31 180.398 212.867 180.955C212.424 181.513 211.779 181.872 211.071 181.956C210.364 182.04 209.653 181.841 209.091 181.402C208.53 180.964 208.165 180.321 208.076 179.615L206.434 180.575C208.543 183.062 207.139 186.878 204.708 188.548C201.99 190.415 197.973 190.739 194.909 189.578C194.157 189.32 193.467 188.909 192.882 188.371C192.296 187.834 191.827 187.182 191.505 186.455C191.206 185.799 191.121 185.065 191.261 184.358C191.402 183.65 191.76 183.005 192.287 182.512C192.743 182.061 193.357 181.805 193.998 181.799C194.639 181.792 195.258 182.034 195.724 182.475C196.231 182.993 196.604 183.628 196.808 184.324C197.012 185.019 197.042 185.755 196.896 186.465C196.58 188.44 195.487 190.262 194.471 191.95C193.311 193.873 191.999 195.7 190.548 197.414C189.734 198.377 191.138 199.764 191.96 198.791L191.96 198.791Z" fill="#19D2A6"/>
<path d="M209.467 245.682C209.637 245.857 209.793 246.045 209.933 246.244L231.779 245.71L234.327 241.053L241.858 243.98L238.148 252.663C237.848 253.365 237.329 253.95 236.668 254.331C236.007 254.712 235.241 254.869 234.483 254.777L209.802 251.796C209.22 252.533 208.427 253.075 207.529 253.351C206.631 253.626 205.67 253.622 204.775 253.338C203.88 253.054 203.092 252.505 202.516 251.762C201.941 251.02 201.605 250.12 201.554 249.182C201.502 248.244 201.738 247.313 202.229 246.512C202.719 245.711 203.442 245.079 204.301 244.699C205.16 244.319 206.115 244.209 207.037 244.385C207.96 244.561 208.807 245.013 209.467 245.682Z" fill="#FFB7B7"/>
<path d="M280.678 378.353H273.495L270.078 350.646L280.679 350.647L280.678 378.353Z" fill="#FFB7B7"/>
<path d="M282.509 385.316L259.348 385.315V385.023C259.348 382.632 260.298 380.339 261.988 378.648C263.679 376.958 265.972 376.008 268.363 376.008H268.363L282.509 376.008L282.509 385.316Z" fill="#2F2E41"/>
<path d="M215.457 378.194L208.852 375.372L216.593 348.551L226.342 352.716L215.457 378.194Z" fill="#FFB7B7"/>
<path d="M214.404 385.316L193.105 376.217L193.221 375.948C194.16 373.749 195.934 372.014 198.153 371.123C200.372 370.233 202.853 370.26 205.052 371.199L205.053 371.199L218.061 376.757L214.404 385.316Z" fill="#2F2E41"/>
<path d="M245.766 251.684L245.246 260.101L260.43 261.726L276.316 263.426L271.64 250.645L245.766 251.684Z" fill="#FFB7B7"/>
<path d="M244.769 260.209L238.871 219.09L249.095 215.739L252.097 211.621L266.71 212.486L268.855 217.291L276.646 220.973L275.449 243.211L276.322 261.813L244.769 260.209Z" fill="#2F2E41"/>
<path d="M241.055 249.19L230.656 245.03L230.701 244.845C230.745 244.658 235.171 226.163 235.759 223.191C236.371 220.094 238.608 219.238 238.703 219.203L238.772 219.178L242.887 220.43L244.695 234.632L241.055 249.19Z" fill="#2F2E41"/>
<path d="M220.803 373.323L206.961 370.483L229.085 309.434L236.657 288.611C236.657 288.611 241.46 271.915 243.63 265.454L244.939 256.785L275.937 260.216C275.937 260.216 284.595 272.931 281.964 293.655L283.154 371.548L269.311 372.258L257.717 293.699L237.367 336.764C237.367 336.764 230.953 355.142 226.364 359.125L220.803 373.323Z" fill="#2F2E41"/>
<path d="M263.512 263.109C263.756 263.103 263.999 263.117 264.241 263.149L278.702 246.766L277.02 241.731L284.287 238.199L288.131 246.824C288.442 247.52 288.518 248.299 288.348 249.043C288.179 249.786 287.772 250.455 287.19 250.948L268.223 267.02C268.367 267.948 268.226 268.898 267.818 269.744C267.409 270.59 266.753 271.291 265.936 271.755C265.119 272.218 264.18 272.422 263.245 272.339C262.309 272.257 261.421 271.891 260.698 271.291C259.976 270.691 259.453 269.885 259.199 268.981C258.946 268.076 258.973 267.116 259.279 266.228C259.584 265.34 260.153 264.566 260.909 264.008C261.665 263.451 262.573 263.138 263.512 263.109Z" fill="#FFB7B7"/>
<path d="M277.544 248.361L271.512 234.171L273.865 224.287L276.4 221.084C276.585 221.005 276.785 220.965 276.987 220.967C277.189 220.969 277.389 221.013 277.573 221.095C278.508 221.472 279.304 222.625 279.939 224.523L285.593 240.626L277.544 248.361Z" fill="#2F2E41"/>
<path d="M246.246 206.365V195.667C246.246 191.865 247.756 188.219 250.445 185.531C253.133 182.842 256.779 181.332 260.581 181.332C264.383 181.332 268.029 182.842 270.717 185.531C273.406 188.219 274.916 191.865 274.916 195.667V206.365C274.915 206.875 274.712 207.365 274.351 207.726C273.99 208.087 273.501 208.29 272.99 208.29H248.172C247.661 208.29 247.172 208.087 246.811 207.726C246.45 207.365 246.247 206.875 246.246 206.365Z" fill="#2F2E41"/>
<path d="M257.635 208.041C263.439 208.041 268.145 203.336 268.145 197.531C268.145 191.727 263.439 187.021 257.635 187.021C251.83 187.021 247.125 191.727 247.125 197.531C247.125 203.336 251.83 208.041 257.635 208.041Z" fill="#FFB7B7"/>
<path d="M242.855 196.521C242.859 193.515 244.055 190.633 246.18 188.507C248.306 186.381 251.189 185.185 254.195 185.182H256.335C259.341 185.185 262.223 186.381 264.349 188.507C266.475 190.633 267.671 193.515 267.674 196.521V196.735H263.153L261.61 192.417L261.302 196.735H258.965L258.187 194.556L258.031 196.735H242.856L242.855 196.521Z" fill="#2F2E41"/>
<path d="M256.601 209.492C256.389 209.205 256.262 208.863 256.236 208.507C256.209 208.15 256.284 207.794 256.451 207.478C258.718 203.165 261.893 195.197 257.679 190.283L257.376 189.93H269.609V208.295L258.496 210.256C258.384 210.276 258.27 210.286 258.155 210.286C257.852 210.286 257.553 210.214 257.283 210.076C257.013 209.938 256.779 209.738 256.601 209.492Z" fill="#2F2E41"/>
<path d="M113.902 372.3L120.394 374.62L132.431 350.686L122.851 347.262L113.902 372.3Z" fill="#9F616A"/>
<path d="M109.996 378.002L113.003 369.59L125.787 374.159C127.946 374.933 129.71 376.532 130.691 378.606C131.673 380.679 131.792 383.057 131.022 385.218L130.928 385.482L109.996 378.002Z" fill="#2F2E41"/>
<path d="M156.114 378.723L163.008 378.722L166.288 352.133L156.113 352.133L156.114 378.723Z" fill="#9F616A"/>
<path d="M154.359 376.471L167.935 376.471H167.936C169.072 376.471 170.197 376.694 171.247 377.129C172.297 377.564 173.25 378.201 174.054 379.005C174.857 379.808 175.495 380.762 175.929 381.811C176.364 382.861 176.588 383.986 176.588 385.122V385.404L154.36 385.404L154.359 376.471Z" fill="#2F2E41"/>
<path d="M140.406 208.846L143.404 202.922C143.404 202.922 154.573 205.72 155.588 212.193L140.406 208.846Z" fill="#F1F1F1"/>
<path d="M128.035 276.584L136.188 322.081L114.539 360.366L127.472 365.427L149.402 328.315L152.213 318.194L153.9 371.05L165.564 370.696L170.912 321.341L162.334 275.459L128.035 276.584Z" fill="#2F2E41"/>
<path d="M143.509 287.34C131.531 287.34 123.927 285.049 123.756 285.012L123.48 284.954L129.719 256.029L130 229.348C130 218.042 137.441 209.706 138.474 208.937C138.648 208.25 138.97 207.61 139.416 207.061C139.863 206.512 140.424 206.067 141.061 205.757C143.543 204.631 146.576 205.982 146.704 206.041L155.808 209.454L155.851 209.58C155.961 209.904 167.952 249.27 167.952 249.27C167.952 249.27 167.226 283.665 166.973 284.792C166.973 284.792 150.164 287.34 143.509 287.34Z" fill="#3F3D56"/>
<path d="M152.715 201.057C159.511 201.057 165.02 195.548 165.02 188.752C165.02 181.956 159.511 176.447 152.715 176.447C145.919 176.447 140.41 181.956 140.41 188.752C140.41 195.548 145.919 201.057 152.715 201.057Z" fill="#9F616A"/>
<path opacity="0.2" d="M138.996 231.529L160.523 261.565L163.702 247.538L138.996 231.529Z" fill="black"/>
<path d="M206.488 251.965C205.883 252.444 205.18 252.784 204.429 252.962C203.678 253.14 202.897 253.151 202.141 252.994C201.385 252.837 200.672 252.517 200.054 252.055C199.435 251.593 198.925 251.001 198.56 250.321L180.031 253.287L184.045 244.4L201.025 242.946C202.209 242.409 203.548 242.324 204.79 242.708C206.032 243.091 207.089 243.917 207.763 245.029C208.436 246.141 208.678 247.461 208.443 248.739C208.209 250.017 207.513 251.165 206.489 251.965H206.488Z" fill="#9F616A"/>
<path d="M185 243.895L191.658 243.242L193.503 252.529L185.125 252.678L185 243.895Z" fill="#F1F1F1"/>
<path d="M190.454 255.764L157.848 252.861L141.383 226.677L141.333 226.446C140.865 224.307 141.193 222.071 142.253 220.156C143.314 218.24 145.035 216.776 147.096 216.037C149.157 215.298 151.416 215.334 153.452 216.139C155.489 216.943 157.162 218.462 158.161 220.41L167.826 239.262L187.331 242.211L190.454 255.764Z" fill="#3F3D56"/>
<path d="M142.235 199.436L152.448 199.802C153.071 199.825 154.761 193.106 154.982 191.712C155.157 190.805 155.656 189.992 156.386 189.426C157.116 188.86 158.027 188.579 158.95 188.635C159.714 188.707 161.642 187.279 163.631 185.588C167.408 182.377 167.212 176.346 163.063 173.633C162.949 173.559 162.838 173.491 162.729 173.43C160.112 171.965 157.05 171.473 154.051 171.436C151.332 171.402 148.536 171.744 146.141 173.031C141.847 175.338 139.562 180.379 139.361 185.25C139.16 190.12 140.722 194.883 142.494 199.424" fill="#2F2E41"/>
<path d="M398.254 385.886H0.577766C0.435929 385.886 0.299901 385.83 0.199607 385.729C0.0993129 385.629 0.0429688 385.493 0.0429688 385.351C0.0429688 385.209 0.0993129 385.073 0.199607 384.973C0.299901 384.873 0.435929 384.816 0.577766 384.816H398.467C398.609 384.816 398.745 384.873 398.845 384.973C398.945 385.073 399.002 385.209 399.002 385.351C399.002 385.647 398.55 385.886 398.254 385.886Z" fill="#CBCBCB"/>
</g>
<defs>
<clipPath id="clip0_2729_3273">
<rect width="398.959" height="385.772" fill="white" transform="translate(0.0429688 0.114258)"/>
</clipPath>
</defs>
</svg>
