<svg width="251" height="248" viewBox="0 0 251 248" fill="none" xmlns="http://www.w3.org/2000/svg">
<path d="M202.221 193.231L201.868 192.885L202.221 193.231C201.761 193.7 201.501 194.338 201.5 195.005V243.995C201.501 244.662 201.761 245.3 202.221 245.769C202.68 246.238 203.301 246.499 203.946 246.5H227.054C227.699 246.499 228.32 246.238 228.779 245.769C229.239 245.3 229.499 244.663 229.5 243.996V195.004C229.499 194.337 229.239 193.7 228.779 193.231C228.32 192.763 227.7 192.501 227.054 192.5H203.946C203.3 192.501 202.68 192.763 202.221 193.231Z" fill="#19D2A6" stroke="black"/>
<mask id="path-2-inside-1_2729_3327" fill="white">
<path d="M147.523 247H171.477C172.411 246.999 173.307 246.616 173.967 245.935C174.627 245.255 174.999 244.332 175 243.369V143.631C174.999 142.668 174.627 141.745 173.967 141.065C173.307 140.384 172.411 140.001 171.477 140H147.523C146.589 140.001 145.693 140.384 145.033 141.065C144.372 141.745 144.001 142.668 144 143.631V243.369C144.001 244.332 144.372 245.255 145.033 245.935C145.693 246.616 146.589 246.999 147.523 247ZM171.477 140.968C172.162 140.969 172.819 141.25 173.303 141.749C173.787 142.248 174.06 142.925 174.061 143.631V243.369C174.06 244.075 173.787 244.752 173.303 245.251C172.819 245.75 172.162 246.031 171.477 246.032H147.523C146.838 246.031 146.181 245.75 145.697 245.251C145.213 244.752 144.94 244.075 144.939 243.369V143.631C144.94 142.925 145.213 142.248 145.697 141.749C146.181 141.25 146.838 140.969 147.523 140.968H171.477Z"/>
</mask>
<path d="M171.477 247L171.478 248H171.477V247ZM175 243.369H176L176 243.37L175 243.369ZM175 143.631L176 143.63V143.631H175ZM171.477 140V139L171.478 139L171.477 140ZM147.523 140L147.522 139H147.523V140ZM144 143.631H143L143 143.63L144 143.631ZM144 243.369L143 243.37V243.369H144ZM171.477 140.968V139.968L171.478 139.968L171.477 140.968ZM174.061 143.631L175.061 143.63V143.631H174.061ZM174.061 243.369H175.061L175.061 243.37L174.061 243.369ZM171.477 246.032L171.478 247.032H171.477V246.032ZM147.523 246.032V247.032H147.522L147.523 246.032ZM144.939 243.369L143.939 243.37V243.369H144.939ZM144.939 143.631H143.939L143.939 143.63L144.939 143.631ZM147.523 140.968L147.522 139.968H147.523V140.968ZM147.523 246H171.477V248H147.523V246ZM171.476 246C172.135 245.999 172.774 245.729 173.249 245.239L174.685 246.632C173.84 247.503 172.687 247.999 171.478 248L171.476 246ZM173.249 245.239C173.726 244.748 173.999 244.075 174 243.368L176 243.37C175.999 244.588 175.529 245.761 174.685 246.632L173.249 245.239ZM174 243.369V143.631H176V243.369H174ZM174 143.632C173.999 142.925 173.726 142.252 173.249 141.761L174.685 140.368C175.529 141.239 175.999 142.412 176 143.63L174 143.632ZM173.249 141.761C172.774 141.271 172.135 141.001 171.476 141L171.478 139C172.687 139.001 173.84 139.497 174.685 140.368L173.249 141.761ZM171.477 141H147.523V139H171.477V141ZM147.524 141C146.865 141.001 146.226 141.271 145.751 141.761L144.315 140.368C145.16 139.497 146.313 139.001 147.522 139L147.524 141ZM145.751 141.761C145.274 142.252 145.001 142.925 145 143.632L143 143.63C143.001 142.412 143.471 141.239 144.315 140.368L145.751 141.761ZM145 143.631V243.369H143V143.631H145ZM145 243.368C145.001 244.075 145.274 244.748 145.751 245.239L144.315 246.632C143.471 245.761 143.001 244.588 143 243.37L145 243.368ZM145.751 245.239C146.226 245.729 146.865 245.999 147.524 246L147.522 248C146.313 247.999 145.16 247.503 144.315 246.632L145.751 245.239ZM171.478 139.968C172.438 139.969 173.352 140.363 174.021 141.053L172.585 142.445C172.286 142.137 171.886 141.969 171.476 141.968L171.478 139.968ZM174.021 141.053C174.689 141.741 175.06 142.669 175.061 143.63L173.061 143.632C173.06 143.182 172.886 142.755 172.585 142.445L174.021 141.053ZM175.061 143.631V243.369H173.061V143.631H175.061ZM175.061 243.37C175.06 244.331 174.689 245.259 174.021 245.947L172.585 244.555C172.886 244.245 173.06 243.818 173.061 243.368L175.061 243.37ZM174.021 245.947C173.352 246.637 172.438 247.031 171.478 247.032L171.476 245.032C171.886 245.031 172.286 244.863 172.585 244.555L174.021 245.947ZM171.477 247.032H147.523V245.032H171.477V247.032ZM147.522 247.032C146.562 247.031 145.648 246.637 144.979 245.947L146.415 244.555C146.714 244.863 147.114 245.031 147.524 245.032L147.522 247.032ZM144.979 245.947C144.311 245.259 143.94 244.331 143.939 243.37L145.939 243.368C145.94 243.818 146.114 244.245 146.415 244.555L144.979 245.947ZM143.939 243.369V143.631H145.939V243.369H143.939ZM143.939 143.63C143.94 142.669 144.311 141.741 144.979 141.053L146.415 142.445C146.114 142.755 145.94 143.182 145.939 143.632L143.939 143.63ZM144.979 141.053C145.648 140.363 146.562 139.969 147.522 139.968L147.524 141.968C147.114 141.969 146.714 142.137 146.415 142.445L144.979 141.053ZM147.523 139.968H171.477V141.968H147.523V139.968Z" fill="#3F3D56" mask="url(#path-2-inside-1_2729_3327)"/>
<path d="M35.0475 246.5H58.9525C59.6242 246.499 60.2705 246.226 60.749 245.737C61.2278 245.247 61.4991 244.58 61.5 243.883V16.1171C61.4991 15.4197 61.2278 14.7533 60.749 14.2635C60.2706 13.7741 59.6244 13.5009 58.9528 13.5H35.0472C34.3756 13.5009 33.7294 13.7741 33.251 14.2635C32.7721 14.7533 32.5008 15.4198 32.5 16.1174V243.883C32.5008 244.58 32.7721 245.247 33.251 245.737C33.7295 246.226 34.3758 246.499 35.0475 246.5Z" fill="#19D2A6" stroke="black"/>
<path d="M183.037 106.618C182.951 105.9 183.015 105.171 183.223 104.482C183.432 103.793 183.78 103.161 184.243 102.63C184.707 102.099 185.275 101.683 185.906 101.41C186.538 101.137 187.218 101.015 187.899 101.051L196.145 85L198 91.8913L192.351 106.602C192.217 107.812 191.67 108.928 190.813 109.739C189.956 110.549 188.849 110.998 187.701 111C186.553 111.002 185.444 110.557 184.584 109.749C183.725 108.942 183.174 107.827 183.037 106.618V106.618Z" fill="#A0616A"/>
<path d="M246 167.658L241.34 171L226 154.933L232.878 150L246 167.658Z" fill="#A0616A"/>
<path d="M235.691 182.562L250.078 171.696L246.02 165.945L237.192 172.613C235.718 173.727 234.731 175.4 234.45 177.266C234.169 179.132 234.615 181.037 235.691 182.562L235.691 182.562Z" fill="#2F2E41"/>
<path d="M220.999 187L215.579 187L213 164L221 164L220.999 187Z" fill="#A0616A"/>
<path d="M205.188 191.785L222.999 191.786L222.999 184.666L212.069 184.665C210.244 184.665 208.494 185.415 207.203 186.75C205.913 188.086 205.188 189.897 205.188 191.785Z" fill="#2F2E41"/>
<path d="M203.551 98.2997C203.551 98.2997 200.762 125.866 207.734 144.878L212.846 181H221.676L220.747 138.224L224 100.201C224 100.201 217.493 83.0904 203.551 98.2997Z" fill="#2F2E41"/>
<path d="M234.094 100.307L224.719 132.909L243 162.204L233.859 170L213 137.162L219.094 97L234.094 100.307Z" fill="#2F2E41"/>
<path d="M210.5 27C204.149 27 199 21.4036 199 14.5C199 7.59644 204.149 2 210.5 2C216.851 2 222 7.59644 222 14.5C222 21.4036 216.851 27 210.5 27Z" fill="#A0616A"/>
<path d="M220.258 30.085C220.258 30.085 213.166 25.3002 205.128 35.8267L203 102.096C203 102.096 209.147 93.4832 221.913 101.617C234.679 109.751 237.516 100.66 237.516 100.66C237.516 100.66 246.5 32.2381 220.258 30.085Z" fill="#19D2A6"/>
<path d="M205.579 36.0122C203.61 36.1241 201.75 36.9971 200.357 38.4632C198.964 39.9294 198.136 41.8851 198.032 43.9543L196.584 72.8679L187 100.204L192.477 105L210.276 72.3883L213.92 45.5828C214.087 44.3542 213.992 43.102 213.644 41.9163C213.295 40.7305 212.7 39.6408 211.903 38.7255C211.105 37.8103 210.124 37.0922 209.031 36.623C207.937 36.1538 206.759 35.9453 205.579 36.0122Z" fill="#19D2A6"/>
<path d="M219.299 22.9474C217.463 24.9889 214.054 23.8929 213.815 21.1039C213.796 20.8874 213.797 20.6695 213.819 20.4532C213.942 19.2178 214.626 18.0962 214.462 16.7918C214.425 16.4672 214.309 16.1578 214.125 15.893C212.663 13.8479 209.228 16.8077 207.848 14.9563C207.001 13.8211 207.996 12.0338 207.347 10.765C206.489 9.09042 203.949 9.9165 202.357 8.99941C200.585 7.97903 200.691 5.14071 201.857 3.41431C203.28 1.30889 205.774 0.185421 208.237 0.0234936C210.7 -0.138434 213.146 0.556691 215.446 1.49225C218.059 2.55522 220.65 4.02429 222.258 6.42268C224.213 9.33939 224.401 13.2606 223.423 16.6712C222.828 18.7458 220.798 21.2802 219.299 22.9474Z" fill="#2F2E41"/>
<mask id="path-16-inside-2_2729_3327" fill="white">
<path d="M0.447739 248H244.552C244.671 248 244.785 247.947 244.869 247.853C244.953 247.759 245 247.632 245 247.5C245 247.368 244.953 247.241 244.869 247.147C244.785 247.053 244.671 247 244.552 247H0.447739C0.328873 247 0.214996 247.053 0.131058 247.147C0.0471344 247.241 0 247.368 0 247.5C0 247.632 0.0471344 247.759 0.131058 247.853C0.214996 247.947 0.328873 248 0.447739 248Z"/>
</mask>
<path d="M0.447739 248H244.552C244.671 248 244.785 247.947 244.869 247.853C244.953 247.759 245 247.632 245 247.5C245 247.368 244.953 247.241 244.869 247.147C244.785 247.053 244.671 247 244.552 247H0.447739C0.328873 247 0.214996 247.053 0.131058 247.147C0.0471344 247.241 0 247.368 0 247.5C0 247.632 0.0471344 247.759 0.131058 247.853C0.214996 247.947 0.328873 248 0.447739 248Z" fill="#F7F7F7"/>
<path d="M0.447739 248V249L0.444519 249L0.447739 248ZM244.552 248L244.556 249H244.552V248ZM244.552 247V246L244.556 246L244.552 247ZM0.447739 247L0.444519 246H0.447739V247ZM0 247.5H-1H0ZM0.447739 247H244.552V249H0.447739V247ZM244.549 247C244.366 247.001 244.216 247.083 244.124 247.186L245.614 248.52C245.354 248.811 244.976 248.999 244.556 249L244.549 247ZM244.124 247.186C244.035 247.286 244 247.4 244 247.5H246C246 247.864 245.871 248.233 245.614 248.52L244.124 247.186ZM244 247.5C244 247.6 244.035 247.714 244.124 247.814L245.614 246.48C245.871 246.767 246 247.136 246 247.5H244ZM244.124 247.814C244.217 247.917 244.367 247.999 244.549 248L244.556 246C244.976 246.001 245.353 246.189 245.614 246.48L244.124 247.814ZM244.552 248H0.447739V246H244.552V248ZM0.450974 248C0.633392 247.999 0.783417 247.917 0.876038 247.814L-0.613922 246.48C-0.353424 246.189 0.024353 246.001 0.444519 246L0.450974 248ZM0.876038 247.814C0.965469 247.714 1 247.6 1 247.5H-1C-1 247.136 -0.871201 246.767 -0.613922 246.48L0.876038 247.814ZM1 247.5C1 247.4 0.965439 247.286 0.876038 247.186L-0.613922 248.52C-0.871155 248.233 -1 247.865 -1 247.5H1ZM0.876038 247.186C0.783508 247.083 0.63353 247.001 0.450974 247L0.444519 249C0.0242157 248.999 -0.353531 248.811 -0.613922 248.52L0.876038 247.186Z" fill="#3F3D56" mask="url(#path-16-inside-2_2729_3327)"/>
<rect x="88.5" y="80.5" width="28" height="166" rx="3.5" stroke="black"/>
</svg>
