<svg width="43" height="41" viewBox="0 0 43 41" fill="none" xmlns="http://www.w3.org/2000/svg">
<path fill-rule="evenodd" clip-rule="evenodd" d="M28.9895 20.9628C26.6286 19.1132 24.5195 18.6816 24.5195 18.6816C24.5195 18.6816 25.8731 19.9455 27.3526 21.8877C28.8321 23.7989 29.9339 26.2343 29.9339 26.2343L32.767 25.3095C32.7355 25.2786 31.0041 22.535 28.9895 20.9628Z" fill="white"/>
<path fill-rule="evenodd" clip-rule="evenodd" d="M22.1597 22.7812C22.1597 22.7812 21.3098 24.3843 19.8303 26.3264C18.3508 28.2376 16.3047 29.9948 16.3047 29.9948L18.036 32.3685C18.036 32.3685 20.2395 29.964 21.2154 27.5903C22.3486 24.8775 22.1597 22.7812 22.1597 22.7812Z" fill="white"/>
<path fill-rule="evenodd" clip-rule="evenodd" d="M13.5664 20.6543C11.2055 19.9454 8.84461 18.6201 8.84461 18.6201L7.11328 20.9933C7.11328 20.9933 10.1667 22.2261 12.7794 22.3494C15.8014 22.4727 17.7846 21.6405 17.7846 21.6405C17.7846 21.6405 15.9273 21.3939 13.5664 20.6543Z" fill="white"/>
<path fill-rule="evenodd" clip-rule="evenodd" d="M17.5338 7.79968L14.7321 6.93652C14.7321 6.93652 14.4803 10.1117 15.1728 12.547C15.9598 15.3523 17.4078 16.9245 17.4078 16.9245C17.4078 16.9245 17.093 15.1673 17.0301 12.7628C16.9986 10.3892 17.5338 7.79968 17.5338 7.79968Z" fill="white"/>
<path fill-rule="evenodd" clip-rule="evenodd" d="M25.2147 11.9915C22.6335 13.5329 21.4688 15.29 21.4688 15.29C21.4688 15.29 23.1371 14.4885 25.5295 13.7795C27.8904 13.0705 30.5976 12.8547 30.5976 12.8547L30.692 10.0186C30.6605 9.98776 27.4497 10.666 25.2147 11.9915Z" fill="white"/>
<path fill-rule="evenodd" clip-rule="evenodd" d="M13.2514 12.0218C12.0238 8.50756 12.5589 4.25343 12.5589 4.25343L5.22437 2.86621C5.22437 2.86621 4.1541 10.573 7.58528 14.7655C11.5831 19.6361 18.8861 20.4993 18.8861 20.4993C18.8861 20.4993 15.4864 18.403 13.2514 12.0218Z" fill="#19D2A6"/>
<path fill-rule="evenodd" clip-rule="evenodd" d="M32.108 0C32.108 0 24.2384 1.29474 21.122 5.73383C17.5334 10.8511 18.887 17.9105 18.887 17.9105C18.887 17.9105 19.9258 14.1496 25.529 10.1421C28.6139 7.95338 32.958 7.1827 32.958 7.1827L32.108 0Z" fill="#19D2A6"/>
<path fill-rule="evenodd" clip-rule="evenodd" d="M34.1227 15.0437C28.0159 13.2249 21.5312 16.5851 21.5312 16.5851C21.5312 16.5851 25.529 16.431 31.1008 20.4385C34.1857 22.6272 36.2318 26.4497 36.2318 26.4497L42.9997 23.5212C43.0312 23.552 39.3797 16.6159 34.1227 15.0437Z" fill="#19D2A6"/>
<path fill-rule="evenodd" clip-rule="evenodd" d="M23.4511 19.082C23.4511 19.082 24.8362 22.7196 22.6327 29.1008C21.4365 32.6151 18.3516 35.667 18.3516 35.667L23.2308 41C23.2308 41 28.8655 35.5128 28.8025 30.2106C28.7081 24.0144 23.4511 19.082 23.4511 19.082Z" fill="#19D2A6"/>
<path fill-rule="evenodd" clip-rule="evenodd" d="M11.4897 23.6134C7.6808 23.5517 3.71449 21.6096 3.71449 21.6096L0 27.8367C0 27.8367 7.11418 31.4434 12.3082 29.7171C18.3521 27.7134 21.5629 21.2705 21.5629 21.2705C21.5629 21.2705 18.415 23.7058 11.4897 23.6134Z" fill="#19D2A6"/>
</svg>
